<svg width="35" height="36" viewBox="0 0 35 36" fill="none" xmlns="http://www.w3.org/2000/svg">
<g id="Frame 5">
<g id="Xnix/Line/pizza_slice">
<g id="Vector">
<g id="Group_8544">
<path id="Vector_2" fill-rule="evenodd" clip-rule="evenodd" d="M24.23 16.2293C25.5708 18.9242 26.0508 21.9662 25.605 24.943L22.45 25.068L8.25 25.6555L15.845 13.383L17.5325 10.6555C20.2956 11.7629 22.6392 13.7133 24.23 16.2293Z" stroke="#004282" stroke-width="1.5" stroke-linecap="round" stroke-linejoin="round"/>
<path id="Vector-2" d="M22.4497 25.0718C22.5198 22.655 21.9322 20.2645 20.7497 18.1556C19.6083 16.1257 17.9051 14.4685 15.8447 13.3831" stroke="#004282" stroke-width="1.5" stroke-linecap="round" stroke-linejoin="round"/>
<g id="Ellipse_923">
<path id="Path" d="M19.2129 22.193C18.8683 22.193 18.5879 21.9126 18.5879 21.568C18.5879 21.2234 18.8683 20.943 19.2129 20.943C19.5575 20.943 19.8379 21.2234 19.8379 21.568C19.8379 21.9126 19.5575 22.193 19.2129 22.193Z" fill="#004282"/>
<path id="Path_2" d="M19.2129 20.318C19.9032 20.318 20.4629 20.8776 20.4629 21.568C20.4629 22.2583 19.9032 22.818 19.2129 22.818C18.5225 22.818 17.9629 22.2583 17.9629 21.568C17.9629 20.8776 18.5225 20.318 19.2129 20.318Z" fill="#004282"/>
</g>
<g id="Ellipse_924">
<path id="Path_3" d="M13.6074 22.9043C13.2628 22.9043 12.9824 22.6239 12.9824 22.2793C12.9824 21.9347 13.2628 21.6543 13.6074 21.6543C13.952 21.6543 14.2324 21.9347 14.2324 22.2793C14.2324 22.6239 13.952 22.9043 13.6074 22.9043Z" fill="#004282"/>
<path id="Path_4" d="M13.6074 21.0293C14.2978 21.0293 14.8574 21.5889 14.8574 22.2793C14.8574 22.9696 14.2978 23.5293 13.6074 23.5293C12.9171 23.5293 12.3574 22.9696 12.3574 22.2793C12.3574 21.5889 12.9171 21.0293 13.6074 21.0293Z" fill="#004282"/>
</g>
<g id="Ellipse_925">
<path id="Path_5" d="M16.7129 18.443C16.3683 18.443 16.0879 18.1626 16.0879 17.818C16.0879 17.4734 16.3683 17.193 16.7129 17.193C17.0575 17.193 17.3379 17.4734 17.3379 17.818C17.3379 18.1626 17.0575 18.443 16.7129 18.443Z" fill="#004282"/>
<path id="Path_6" d="M16.7129 16.568C17.4032 16.568 17.9629 17.1276 17.9629 17.818C17.9629 18.5083 17.4032 19.068 16.7129 19.068C16.0225 19.068 15.4629 18.5083 15.4629 17.818C15.4629 17.1276 16.0225 16.568 16.7129 16.568Z" fill="#004282"/>
</g>
</g>
</g>
</g>
<rect x="1" y="1.15552" width="33" height="33" rx="16.5" stroke="#FFE500" stroke-width="2"/>
</g>
</svg>
