<svg width="35" height="36" viewBox="0 0 35 36" fill="none" xmlns="http://www.w3.org/2000/svg">
<g id="Frame 5">
<g id="Xnix/Line/Dashboard">
<g id="Vector">
<path id="Vector_2" fill-rule="evenodd" clip-rule="evenodd" d="M13.9876 16.0245H10.6789C10.1934 16.0204 9.72623 16.2094 9.3801 16.5499C9.03397 16.8903 8.83726 17.3543 8.83325 17.8398V24.7103C8.84223 25.7208 9.6684 26.5329 10.6789 26.5245H13.9876C14.4731 26.5285 14.9403 26.3395 15.2864 25.9991C15.6325 25.6586 15.8292 25.1946 15.8333 24.7091V17.8398C15.8292 17.3543 15.6325 16.8903 15.2864 16.5499C14.9403 16.2094 14.4731 16.0204 13.9876 16.0245Z" stroke="#004282" stroke-width="1.5" stroke-linecap="round" stroke-linejoin="round"/>
<path id="Vector-2" fill-rule="evenodd" clip-rule="evenodd" d="M13.9876 9.02451H10.6789C9.68872 8.99704 8.8631 9.77621 8.83325 10.7663V11.9493C8.8631 12.9395 9.68872 13.7186 10.6789 13.6912H13.9876C14.9778 13.7186 15.8034 12.9395 15.8333 11.9493V10.7663C15.8034 9.77621 14.9778 8.99704 13.9876 9.02451Z" stroke="#004282" stroke-width="1.5" stroke-linecap="round" stroke-linejoin="round"/>
<path id="Vector-3" fill-rule="evenodd" clip-rule="evenodd" d="M20.0122 19.5246H23.3197C23.8054 19.529 24.2729 19.3401 24.6192 18.9996C24.9656 18.6591 25.1625 18.195 25.1665 17.7093V10.8399C25.1625 10.3544 24.9658 9.89044 24.6197 9.55C24.2735 9.20955 23.8063 9.02056 23.3208 9.0246H20.0122C19.5267 9.02056 19.0595 9.20955 18.7134 9.55C18.3672 9.89044 18.1705 10.3544 18.1665 10.8399V17.7093C18.1705 18.1948 18.3672 18.6588 18.7134 18.9992C19.0595 19.3396 19.5267 19.5286 20.0122 19.5246Z" stroke="#004282" stroke-width="1.5" stroke-linecap="round" stroke-linejoin="round"/>
<path id="Vector-4" fill-rule="evenodd" clip-rule="evenodd" d="M20.0122 26.5245H23.3197C24.3103 26.5527 25.1367 25.7733 25.1665 24.7827V23.5997C25.1367 22.6096 24.311 21.8304 23.3208 21.8579H20.0122C19.022 21.8304 18.1964 22.6096 18.1665 23.5997V24.7815C18.1957 25.7721 19.0215 26.552 20.0122 26.5245Z" stroke="#004282" stroke-width="1.5" stroke-linecap="round" stroke-linejoin="round"/>
</g>
</g>
<rect x="1" y="1.35718" width="33" height="33" rx="16.5" stroke="#FFE500" stroke-width="2"/>
</g>
</svg>
