<svg width="35" height="36" viewBox="0 0 35 36" fill="none" xmlns="http://www.w3.org/2000/svg">
<g id="Frame 5">
<g id="Xnix/Line/Rocket">
<g id="Vector">
<path id="Vector-50" fill-rule="evenodd" clip-rule="evenodd" d="M14.2563 14.4302C13.4101 15.7002 12.6488 16.9715 12.1813 17.8052L11.0076 16.5865C10.2774 15.8152 10.2774 14.6077 11.0076 13.8365C11.3532 13.4739 11.8317 13.2681 12.3326 13.2665H15.0638C14.7913 13.6402 14.5201 14.0302 14.2563 14.4302Z" stroke="#004282" stroke-width="1.5" stroke-linecap="round" stroke-linejoin="round"/>
<path id="Vector-51" fill-rule="evenodd" clip-rule="evenodd" d="M20.7246 20.8989C19.4546 21.7452 18.1834 22.5064 17.3496 22.9739L18.5684 24.1477C19.3396 24.8779 20.5471 24.8779 21.3184 24.1477C21.6809 23.8021 21.8868 23.3235 21.8884 22.8227V20.0914C21.5146 20.3639 21.1246 20.6352 20.7246 20.8989Z" stroke="#004282" stroke-width="1.5" stroke-linecap="round" stroke-linejoin="round"/>
<path id="Vector-52" d="M11.6792 20.1854C11.972 19.8924 11.9719 19.4175 11.679 19.1247C11.386 18.8319 10.9111 18.832 10.6183 19.1249L11.6792 20.1854ZM7.71956 22.0249C7.42673 22.3179 7.42683 22.7928 7.71978 23.0856C8.01274 23.3784 8.48761 23.3783 8.78044 23.0854L7.71956 22.0249ZM13.8531 22.3615C14.1458 22.0685 14.1456 21.5936 13.8526 21.3008C13.5596 21.0081 13.0847 21.0083 12.7919 21.3013L13.8531 22.3615ZM11.3444 22.75C11.0517 23.0431 11.0519 23.5179 11.3449 23.8107C11.6379 24.1035 12.1128 24.1033 12.4056 23.8102L11.3444 22.75ZM12.7113 17.2692C12.4181 16.9766 11.9432 16.9772 11.6507 17.2705C11.3581 17.5637 11.3587 18.0386 11.652 18.3311L12.7113 17.2692ZM14.7716 20.3839L15.3026 19.8542L15.3013 19.8529L14.7716 20.3839ZM16.8244 23.5036C17.117 23.7968 17.5918 23.7974 17.8851 23.5049C18.1783 23.2123 18.1789 22.7374 17.8864 22.4442L16.8244 23.5036ZM14.441 12.8406C14.2099 13.1844 14.3014 13.6504 14.6452 13.8814C14.989 14.1124 15.455 14.021 15.686 13.6772L14.441 12.8406ZM17.336 10.5951L16.8566 10.0184C16.8457 10.0274 16.8351 10.0367 16.8248 10.0463L17.336 10.5951ZM25.6322 9.52264L26.3785 9.44828C26.3431 9.09288 26.062 8.81175 25.7066 8.77634L25.6322 9.52264ZM24.5597 17.8201L25.1086 18.3313C25.1182 18.3209 25.1276 18.3102 25.1367 18.2993L24.5597 17.8201ZM21.4777 19.4701C21.1339 19.7012 21.0424 20.1672 21.2735 20.511C21.5045 20.8548 21.9705 20.9462 22.3143 20.7151L21.4777 19.4701ZM16.0298 24.5369C16.3228 24.244 16.3229 23.7691 16.0301 23.4762C15.7372 23.1832 15.2624 23.1831 14.9694 23.476L16.0298 24.5369ZM12.0694 26.3747C11.7764 26.6675 11.7763 27.1424 12.0692 27.4354C12.362 27.7283 12.8369 27.7284 13.1298 27.4356L12.0694 26.3747ZM22.9438 13.2717C23.2367 12.9788 23.2367 12.504 22.9438 12.2111C22.6509 11.9182 22.176 11.9182 21.8831 12.2111L22.9438 13.2717ZM20.3369 13.7573C20.044 14.0502 20.044 14.5251 20.3369 14.818C20.6298 15.1109 21.1046 15.1109 21.3975 14.818L20.3369 13.7573ZM10.6183 19.1249L7.71956 22.0249L8.78044 23.0854L11.6792 20.1854L10.6183 19.1249ZM12.7919 21.3013L11.3444 22.75L12.4056 23.8102L13.8531 22.3615L12.7919 21.3013ZM11.652 18.3311L14.242 20.9149L15.3013 19.8529L12.7113 17.2692L11.652 18.3311ZM14.2407 20.9136L16.8244 23.5036L17.8864 22.4442L15.3026 19.8542L14.2407 20.9136ZM15.686 13.6772C16.3071 12.7529 17.0322 11.9029 17.8471 11.144L16.8248 10.0463C15.9259 10.8835 15.1261 11.821 14.441 12.8406L15.686 13.6772ZM17.8154 11.1719C18.1021 10.9336 18.573 10.7189 19.2191 10.5503C19.8533 10.3848 20.5965 10.2788 21.3744 10.2189C22.9307 10.0989 24.5505 10.1686 25.5579 10.2689L25.7066 8.77634C24.6314 8.66921 22.9212 8.59516 21.2591 8.7233C20.4278 8.78739 19.5897 8.90341 18.8403 9.09893C18.1028 9.29137 17.3879 9.57671 16.8566 10.0184L17.8154 11.1719ZM24.8859 9.597C24.9863 10.6043 25.056 12.2242 24.936 13.7806C24.876 14.5586 24.77 15.3019 24.6045 15.9364C24.4359 16.5826 24.2212 17.0538 23.9828 17.341L25.1367 18.2993C25.5782 17.7677 25.8635 17.0527 26.0559 16.315C26.2515 15.5655 26.3675 14.7273 26.4316 13.8959C26.5597 12.2336 26.4857 10.5235 26.3785 9.44828L24.8859 9.597ZM24.0109 17.309C23.2519 18.1239 22.402 18.849 21.4777 19.4701L22.3143 20.7151C23.3338 20.03 24.2714 19.2302 25.1086 18.3313L24.0109 17.309ZM14.9694 23.476L12.0694 26.3747L13.1298 27.4356L16.0298 24.5369L14.9694 23.476ZM21.8831 12.2111L20.3369 13.7573L21.3975 14.818L22.9438 13.2717L21.8831 12.2111Z" fill="#004282"/>
</g>
</g>
<rect x="1" y="1.15552" width="33" height="33" rx="16.5" stroke="#FFE500" stroke-width="2"/>
</g>
</svg>
