<svg width="35" height="36" viewBox="0 0 35 36" fill="none" xmlns="http://www.w3.org/2000/svg">
<g id="Frame 5">
<g id="Xnix/Line/Users_2">
<g id="Vector">
<path id="Vector-23" fill-rule="evenodd" clip-rule="evenodd" d="M20.2266 12.5483C20.2254 13.964 19.0769 15.1108 17.6613 15.1099C16.2456 15.1091 15.0985 13.961 15.0989 12.5453C15.0993 11.1296 16.2471 9.98218 17.6628 9.98218C18.343 9.98248 18.9953 10.253 19.4762 10.7342C19.957 11.2155 20.2269 11.868 20.2266 12.5483Z" stroke="#004282" stroke-width="1.5" stroke-linecap="round" stroke-linejoin="round"/>
<path id="Vector-24" fill-rule="evenodd" clip-rule="evenodd" d="M20.3086 18.891H15.0211C13.1738 18.949 11.7063 20.4633 11.7063 22.3116C11.7063 24.1598 13.1738 25.6741 15.0211 25.7321H20.3086C22.1559 25.6741 23.6234 24.1598 23.6234 22.3116C23.6234 20.4633 22.1559 18.949 20.3086 18.891V18.891Z" stroke="#004282" stroke-width="1.5" stroke-linecap="round" stroke-linejoin="round"/>
<path id="Vector-25" fill-rule="evenodd" clip-rule="evenodd" d="M26.7111 14.5092C26.7104 15.5921 25.8322 16.4694 24.7494 16.469C23.6666 16.4686 22.7891 15.5906 22.7893 14.5077C22.7895 13.4249 23.6674 12.5472 24.7502 12.5472C25.2704 12.5472 25.7694 12.754 26.1371 13.122C26.5049 13.4899 26.7114 13.989 26.7111 14.5092V14.5092Z" stroke="#004282" stroke-width="1.5" stroke-linecap="round" stroke-linejoin="round"/>
<path id="Vector-26" fill-rule="evenodd" clip-rule="evenodd" d="M8.31274 14.5092C8.31274 15.5922 9.19066 16.4701 10.2736 16.4701C11.3566 16.4701 12.2345 15.5922 12.2345 14.5092C12.2345 13.4263 11.3566 12.5483 10.2736 12.5483C9.19066 12.5483 8.31274 13.4263 8.31274 14.5092V14.5092Z" stroke="#004282" stroke-width="1.5" stroke-linecap="round" stroke-linejoin="round"/>
<path id="Vector-27" d="M25.3039 18.8948C24.8897 18.8948 24.5539 19.2306 24.5539 19.6448C24.5539 20.059 24.8897 20.3948 25.3039 20.3948V18.8948ZM26.7742 19.6448L26.7898 18.8949C26.7846 18.8948 26.7794 18.8948 26.7742 18.8948V19.6448ZM26.7742 24.8772V25.6272C26.7794 25.6272 26.7846 25.6271 26.7898 25.627L26.7742 24.8772ZM25.3039 24.1272C24.8897 24.1272 24.5539 24.4629 24.5539 24.8772C24.5539 25.2914 24.8897 25.6272 25.3039 25.6272V24.1272ZM9.72037 20.3948C10.1346 20.3948 10.4704 20.059 10.4704 19.6448C10.4704 19.2306 10.1346 18.8948 9.72037 18.8948V20.3948ZM8.25 19.6448V18.8948C8.24481 18.8948 8.23963 18.8948 8.23445 18.8949L8.25 19.6448ZM8.25 24.8772L8.23445 25.627C8.23963 25.6271 8.24481 25.6272 8.25 25.6272V24.8772ZM9.72037 25.6272C10.1346 25.6272 10.4704 25.2914 10.4704 24.8772C10.4704 24.4629 10.1346 24.1272 9.72037 24.1272V25.6272ZM25.3039 20.3948H26.7742V18.8948H25.3039V20.3948ZM26.7587 20.3946C27.7744 20.4157 28.5867 21.2451 28.5867 22.261H30.0867C30.0867 20.4288 28.6216 18.9329 26.7898 18.8949L26.7587 20.3946ZM28.5867 22.261C28.5867 23.2769 27.7744 24.1062 26.7587 24.1273L26.7898 25.627C28.6216 25.589 30.0867 24.0932 30.0867 22.261H28.5867ZM26.7742 24.1272H25.3039V25.6272H26.7742V24.1272ZM9.72037 18.8948H8.25V20.3948H9.72037V18.8948ZM8.23445 18.8949C6.40264 18.9329 4.9375 20.4288 4.9375 22.261H6.4375C6.4375 21.2451 7.24987 20.4157 8.26555 20.3946L8.23445 18.8949ZM4.9375 22.261C4.9375 24.0932 6.40264 25.589 8.23445 25.627L8.26555 24.1273C7.24987 24.1062 6.4375 23.2769 6.4375 22.261H4.9375ZM8.25 25.6272H9.72037V24.1272H8.25V25.6272Z" fill="#004282"/>
</g>
</g>
<rect x="1" y="1.35718" width="33" height="33" rx="16.5" stroke="#FFE500" stroke-width="2"/>
</g>
</svg>
