<svg width="16" height="14" viewBox="0 0 16 14" fill="none" xmlns="http://www.w3.org/2000/svg">
<path id="Vector" fill-rule="evenodd" clip-rule="evenodd" d="M7.707 0.293031C7.51947 0.105559 7.26516 0.000244141 7 0.000244141C6.73484 0.000244141 6.48053 0.105559 6.293 0.293031L0.292999 6.29303C0.105528 6.48056 0.000213623 6.73487 0.000213623 7.00003C0.000213623 7.26519 0.105528 7.5195 0.292999 7.70703L6.293 13.707C6.4816 13.8892 6.7342 13.99 6.9964 13.9877C7.2586 13.9854 7.50941 13.8803 7.69482 13.6948C7.88023 13.5094 7.9854 13.2586 7.98767 12.9964C7.98995 12.7342 7.88916 12.4816 7.707 12.293L3.414 8.00003H15C15.2652 8.00003 15.5196 7.89467 15.7071 7.70714C15.8946 7.5196 16 7.26525 16 7.00003C16 6.73481 15.8946 6.48046 15.7071 6.29292C15.5196 6.10539 15.2652 6.00003 15 6.00003H3.414L7.707 1.70703C7.89447 1.5195 7.99979 1.26519 7.99979 1.00003C7.99979 0.734866 7.89447 0.480558 7.707 0.293031Z" fill="#9CA1AD"/>
</svg>
