<svg width="137" height="41" viewBox="0 0 137 41" fill="none" xmlns="http://www.w3.org/2000/svg">
<g id="&#208;&#160;&#208;&#181;&#209;&#129;&#209;&#131;&#209;&#128;&#209;&#129; 2 1" clip-path="url(#clip0_21_7800)">
<g id="&#208;&#161;&#208;&#187;&#208;&#190;&#208;&#185; 2">
<g id="&#208;&#161;&#208;&#187;&#208;&#190;&#208;&#185; 1">
<path id="Vector" d="M137 0.178711H0V40.268H137V0.178711Z" fill="#003D7C"/>
<path id="Vector_2" d="M28.8878 31.2655V17.3066L24.4082 31.2655H20.0255L15.5071 17.3066V31.2655H8.82324V9.1814H17.8536L22.2039 20.1089L26.5478 9.1814H35.5781V31.2655H28.8878Z" fill="#FFE500"/>
<path id="Vector_3" d="M98.4807 22.1255C100.582 21.9487 102.676 20.4886 102.676 18.0923V13.1753C102.43 10.6938 100.614 9.35817 98.4484 9.1814H81.1182V31.2655H87.8538V22.0534H90.2131L94.9319 31.2655H102.689L97.4659 22.0993L98.4807 22.1255ZM96.6126 16.8876C96.6126 17.3656 96.4963 17.7846 95.6624 17.7846H87.8538V13.5092H95.6688C96.6191 13.5092 96.6126 14.1639 96.6126 14.5371V16.8876Z" fill="#FFE500"/>
<path id="Vector_4" d="M56.5416 13.5485V9.1814H38.9141V31.2655H56.5416V26.8919H45.6173V22.2891H56.5416V17.9286H45.6173V13.5485H56.5416Z" fill="#FFE500"/>
<path id="Vector_5" d="M65.4876 13.5485H59.127V9.1814H78.5322V13.5485H72.178V31.2655H65.4876V13.5485Z" fill="#FFE500"/>
<path id="Vector_6" d="M123.969 9.1814H109.619C107.46 9.35817 105.643 10.4909 105.397 12.9723V27.2651C105.643 29.7662 107.46 31.0888 109.619 31.2655H123.969C126.121 31.0888 127.944 29.7662 128.183 27.2651V12.9723C127.944 10.4712 126.121 9.35817 123.969 9.1814ZM121.435 25.936C121.43 26.1927 121.328 26.4377 121.15 26.6205C120.972 26.8032 120.732 26.9098 120.478 26.9181H113.167C112.909 26.9093 112.662 26.8043 112.475 26.6231C112.288 26.442 112.173 26.1974 112.152 25.936V14.3865C112.152 14.1377 112.295 13.6074 113.129 13.5223H120.485C121.319 13.6074 121.403 14.1377 121.435 14.3865V25.936Z" fill="#FFE500"/>
</g>
</g>
</g>
<defs>
<clipPath id="clip0_21_7800">
<rect width="137" height="40.0893" fill="white" transform="translate(0 0.178711)"/>
</clipPath>
</defs>
</svg>
