<svg width="50" height="50" viewBox="0 0 50 50" fill="none" xmlns="http://www.w3.org/2000/svg">
<g id="Frame 6">
<g id="Xnix/Line/Pencil_Edit">
<g id="Vector">
<path id="Vector-14" fill-rule="evenodd" clip-rule="evenodd" d="M32.9417 11.9372L36.1833 14.5755C36.4963 14.8805 36.6717 15.2997 36.6692 15.7367C36.6667 16.1737 36.4865 16.5908 36.17 16.8922L33.7067 19.8922L25.3233 30.1205C25.1782 30.2914 24.9828 30.4122 24.765 30.4655L20.4183 31.4655C19.8416 31.4894 19.3442 31.064 19.2783 30.4905L19.4817 26.2022C19.4967 25.9832 19.5834 25.7753 19.7283 25.6105L27.75 15.8355L30.575 12.3889C31.1239 11.6418 32.1562 11.4447 32.9417 11.9372Z" stroke="#003D7C" stroke-width="1.5" stroke-linecap="round" stroke-linejoin="round"/>
<path id="Vector-15" d="M13.3333 35.9022C12.919 35.9022 12.5833 36.238 12.5833 36.6522C12.5833 37.0665 12.919 37.4022 13.3333 37.4022V35.9022ZM36.1666 37.4022C36.5808 37.4022 36.9166 37.0665 36.9166 36.6522C36.9166 36.238 36.5808 35.9022 36.1666 35.9022V37.4022ZM28.4454 15.5549C28.2904 15.1707 27.8533 14.9851 27.4692 15.1401C27.0851 15.2951 26.8994 15.7322 27.0544 16.1163L28.4454 15.5549ZM33.8719 20.6288C34.2759 20.5375 34.5294 20.136 34.4382 19.732C34.3469 19.3279 33.9454 19.0744 33.5413 19.1657L33.8719 20.6288ZM13.3333 37.4022H36.1666V35.9022H13.3333V37.4022ZM27.0544 16.1163C27.4204 17.023 28.1774 18.3224 29.293 19.3144C30.4217 20.3181 31.9826 21.0556 33.8719 20.6288L33.5413 19.1657C32.2656 19.4539 31.1815 18.9864 30.2898 18.1934C29.3849 17.3888 28.7461 16.2998 28.4454 15.5549L27.0544 16.1163Z" fill="#003D7C"/>
</g>
</g>
<rect x="1" y="1" width="48" height="48" rx="24" stroke="#FFE500" stroke-width="2"/>
</g>
</svg>
