<svg width="50" height="50" viewBox="0 0 50 50" fill="none" xmlns="http://www.w3.org/2000/svg">
<g id="Frame 9">
<g id="Frame 8">
<g id="Xnix/Line/User_Add">
<g id="Vector">
<path id="Vector-17" fill-rule="evenodd" clip-rule="evenodd" d="M23.3334 16.6667C23.3334 18.5076 21.841 20 20.0001 20C18.1591 20 16.6667 18.5076 16.6667 16.6667C16.6667 14.8257 18.1591 13.3333 20.0001 13.3333C21.841 13.3333 23.3334 14.8257 23.3334 16.6667Z" stroke="#003D7C" stroke-width="1.5" stroke-linecap="round" stroke-linejoin="round"/>
<path id="Vector-18" fill-rule="evenodd" clip-rule="evenodd" d="M28.3334 30.8333C28.3334 34.055 24.6017 36.6667 20.0001 36.6667C15.3984 36.6667 11.6667 34.055 11.6667 30.8333C11.6667 27.6117 15.3984 25 20.0001 25C24.6017 25 28.3334 27.6117 28.3334 30.8333Z" stroke="#003D7C" stroke-width="1.5" stroke-linecap="round" stroke-linejoin="round"/>
<path id="Vector-19" d="M35.7501 13.3333C35.7501 12.9191 35.4143 12.5833 35.0001 12.5833C34.5859 12.5833 34.2501 12.9191 34.2501 13.3333H35.7501ZM34.2501 16.6667C34.2501 17.0809 34.5859 17.4167 35.0001 17.4167C35.4143 17.4167 35.7501 17.0809 35.7501 16.6667H34.2501ZM35.7501 16.6667C35.7501 16.2525 35.4143 15.9167 35.0001 15.9167C34.5859 15.9167 34.2501 16.2525 34.2501 16.6667H35.7501ZM34.2501 20C34.2501 20.4142 34.5859 20.75 35.0001 20.75C35.4143 20.75 35.7501 20.4142 35.7501 20H34.2501ZM35.0001 17.4167C35.4143 17.4167 35.7501 17.0809 35.7501 16.6667C35.7501 16.2525 35.4143 15.9167 35.0001 15.9167V17.4167ZM31.6667 15.9167C31.2525 15.9167 30.9167 16.2525 30.9167 16.6667C30.9167 17.0809 31.2525 17.4167 31.6667 17.4167V15.9167ZM35.0001 15.9167C34.5859 15.9167 34.2501 16.2525 34.2501 16.6667C34.2501 17.0809 34.5859 17.4167 35.0001 17.4167V15.9167ZM38.3334 17.4167C38.7476 17.4167 39.0834 17.0809 39.0834 16.6667C39.0834 16.2525 38.7476 15.9167 38.3334 15.9167V17.4167ZM34.2501 13.3333V16.6667H35.7501V13.3333H34.2501ZM34.2501 16.6667V20H35.7501V16.6667H34.2501ZM35.0001 15.9167H31.6667V17.4167H35.0001V15.9167ZM35.0001 17.4167H38.3334V15.9167H35.0001V17.4167Z" fill="#003D7C"/>
</g>
</g>
</g>
<rect x="1" y="1" width="48" height="48" rx="24" stroke="#FFE500" stroke-width="2"/>
</g>
</svg>
