<svg width="50" height="50" viewBox="0 0 50 50" fill="none" xmlns="http://www.w3.org/2000/svg">
<g id="Frame 6">
<g id="Xnix/Line/list_check">
<g id="Vector">
<path id="Vector-10" fill-rule="evenodd" clip-rule="evenodd" d="M20.1421 34.97L17.1971 36.47C17.0826 36.527 16.9467 36.5202 16.8385 36.4521C16.7303 36.384 16.6653 36.2645 16.6671 36.1367V14.925C16.6494 14.064 17.3328 13.3515 18.1938 13.3333H33.4721C34.3331 13.3515 35.0164 14.064 34.9988 14.925V36.1367C35.0005 36.2645 34.9356 36.384 34.8273 36.4521C34.7191 36.5202 34.5832 36.527 34.4688 36.47L31.5238 34.97C31.4065 34.9101 31.2658 34.9191 31.1571 34.9933L28.7871 36.6033C28.6644 36.6868 28.5031 36.6868 28.3804 36.6033L26.0371 35.0117C25.9144 34.9282 25.7531 34.9282 25.6304 35.0117L23.2871 36.6033C23.1644 36.6868 23.0031 36.6868 22.8804 36.6033L20.5088 35C20.4013 34.9236 20.2606 34.9121 20.1421 34.97Z" stroke="#003D7C" stroke-width="1.5" stroke-linecap="round" stroke-linejoin="round"/>
<path id="Vector-11" d="M21.6655 27.5833C21.2513 27.5833 20.9155 27.9191 20.9155 28.3333C20.9155 28.7475 21.2513 29.0833 21.6655 29.0833V27.5833ZM29.8555 29.0833C30.2697 29.0833 30.6055 28.7475 30.6055 28.3333C30.6055 27.9191 30.2697 27.5833 29.8555 27.5833V29.0833ZM23.0292 21.9697C22.7363 21.6768 22.2614 21.6768 21.9685 21.9697C21.6756 22.2626 21.6756 22.7374 21.9685 23.0303L23.0292 21.9697ZM24.1655 24.1667L23.6352 24.697C23.9281 24.9899 24.403 24.9899 24.6959 24.697L24.1655 24.1667ZM29.6959 19.697C29.9888 19.4041 29.9888 18.9292 29.6959 18.6363C29.403 18.3434 28.9281 18.3434 28.6352 18.6363L29.6959 19.697ZM21.6655 29.0833H29.8555V27.5833H21.6655V29.0833ZM21.9685 23.0303L23.6352 24.697L24.6959 23.6363L23.0292 21.9697L21.9685 23.0303ZM24.6959 24.697L29.6959 19.697L28.6352 18.6363L23.6352 23.6363L24.6959 24.697Z" fill="#003D7C"/>
</g>
</g>
<rect x="1" y="1" width="48" height="48" rx="24" stroke="#FFE500" stroke-width="2"/>
</g>
</svg>
