<svg width="50" height="50" viewBox="0 0 50 50" fill="none" xmlns="http://www.w3.org/2000/svg">
<g id="Frame 9">
<g id="Xnix/Line/percent">
<g id="Vector">
<path id="Vector-33" fill-rule="evenodd" clip-rule="evenodd" d="M11.7856 18.3939C10.4491 17.0575 10.0493 15.0476 10.7726 13.3014C11.4958 11.5552 13.1998 10.4167 15.0898 10.4167C16.9798 10.4167 18.6838 11.5552 19.407 13.3014C20.1303 15.0476 19.7305 17.0575 18.394 18.3939C16.5691 20.2187 13.6105 20.2187 11.7856 18.3939Z" stroke="#003D7C" stroke-width="1.5" stroke-linecap="round" stroke-linejoin="round"/>
<path id="Vector-34" fill-rule="evenodd" clip-rule="evenodd" d="M31.6064 38.2148C30.2699 36.8784 29.8701 34.8685 30.5934 33.1223C31.3166 31.3761 33.0206 30.2376 34.9106 30.2376C36.8006 30.2376 38.5046 31.3761 39.2278 33.1223C39.9511 34.8685 39.5513 36.8784 38.2148 38.2148C36.3899 40.0396 33.4313 40.0396 31.6064 38.2148V38.2148Z" stroke="#003D7C" stroke-width="1.5" stroke-linecap="round"/>
<path id="Vector-35" d="M38.2147 11.7856L11.7834 38.2169" stroke="#003D7C" stroke-width="1.5" stroke-linecap="round"/>
</g>
</g>
<rect x="1" y="1" width="48" height="48" rx="24" stroke="#FFE500" stroke-width="2"/>
</g>
</svg>
