<svg width="50" height="50" viewBox="0 0 50 50" fill="none" xmlns="http://www.w3.org/2000/svg">
<g id="Frame 6">
<g id="Xnix/Line/like">
<g id="Vector">
<path id="Vector-69" d="M16.2287 23.4027C16.4 23.7799 16.8445 23.9468 17.2217 23.7756C17.5989 23.6044 17.7658 23.1598 17.5946 22.7827L16.2287 23.4027ZM13.6033 20.976L13.5934 21.726C13.5983 21.726 13.6032 21.726 13.6081 21.726L13.6033 20.976ZM10 24.4843L9.25 24.4742V24.4843H10ZM10 31.5044H9.24991L9.25009 31.5162L10 31.5044ZM13.6033 35.0044L13.6092 34.2544C13.604 34.2543 13.5987 34.2543 13.5934 34.2544L13.6033 35.0044ZM17.7427 32.8196C17.8772 32.4279 17.6687 32.0012 17.2769 31.8667C16.8852 31.7321 16.4585 31.9407 16.324 32.3324L17.7427 32.8196ZM17.5969 22.7877C17.4285 22.4093 16.9852 22.2391 16.6067 22.4075C16.2283 22.5759 16.058 23.0192 16.2265 23.3976L17.5969 22.7877ZM17.2067 24.4843L16.4567 24.4836V24.4843H17.2067ZM17.2067 31.5043H16.4566L16.4567 31.5096L17.2067 31.5043ZM16.3266 32.3513C16.1988 32.7453 16.4146 33.1683 16.8086 33.2961C17.2026 33.4239 17.6256 33.2081 17.7534 32.8141L16.3266 32.3513ZM16.2402 22.7585C16.0557 23.1293 16.2067 23.5796 16.5775 23.7641C16.9483 23.9487 17.3985 23.7977 17.5831 23.4269L16.2402 22.7585ZM18.0917 21.6444L17.6489 21.039C17.6421 21.044 17.6353 21.0491 17.6287 21.0543L18.0917 21.6444ZM18.7217 20.751L19.4405 20.9649C19.4432 20.956 19.4457 20.947 19.448 20.938L18.7217 20.751ZM20.5233 13.751L19.8032 13.5415C19.801 13.549 19.799 13.5565 19.797 13.5641L20.5233 13.751ZM24.055 11.7677L23.8591 12.4917C23.8649 12.4932 23.8706 12.4947 23.8764 12.4961L24.055 11.7677ZM25.795 13.0574L25.15 13.4402V13.4402L25.795 13.0574ZM26.0933 15.2027L26.8164 15.4019L26.8183 15.3949L26.0933 15.2027ZM25.0633 18.941L24.3402 18.7418L24.3372 18.7532L25.0633 18.941ZM25.3215 20.1686L24.7325 20.633V20.633L25.3215 20.1686ZM26.455 20.706V19.9559L26.4417 19.9561L26.455 20.706ZM32.3417 20.706V21.4561L32.352 21.4559L32.3417 20.706ZM35.3764 21.9149L35.8996 21.3775V21.3775L35.3764 21.9149ZM36.6667 24.916H37.4167L37.4166 24.9061L36.6667 24.916ZM36.6667 30.5277L37.4167 30.5379V30.5277H36.6667ZM35.3759 33.5277L34.8528 32.9902L35.3759 33.5277ZM32.3417 34.736L32.352 33.986H32.3417V34.736ZM20.81 34.736V33.986L20.8062 33.986L20.81 34.736ZM17.6817 32.199C17.4735 31.8409 17.0144 31.7194 16.6563 31.9277C16.2983 32.1359 16.1768 32.5949 16.385 32.953L17.6817 32.199ZM17.5946 22.7827C16.8837 21.2167 15.3184 20.2152 13.5986 20.226L13.6081 21.726C14.7359 21.7189 15.7625 22.3757 16.2287 23.4027L17.5946 22.7827ZM13.6132 20.2261C11.2354 20.1947 9.28218 22.0964 9.25007 24.4742L10.7499 24.4945C10.7709 22.9449 12.0438 21.7055 13.5934 21.726L13.6132 20.2261ZM9.25 24.4843V31.5044H10.75V24.4843H9.25ZM9.25009 31.5162C9.28771 33.8901 11.2393 35.7857 13.6133 35.7543L13.5934 34.2544C12.0463 34.2749 10.7744 33.0395 10.7499 31.4925L9.25009 31.5162ZM13.5974 35.7543C15.4664 35.7691 17.1356 34.5873 17.7427 32.8196L16.324 32.3324C15.9264 33.4901 14.8333 34.264 13.6092 34.2544L13.5974 35.7543ZM16.2265 23.3976C16.3786 23.7395 16.457 24.1095 16.4567 24.4836L17.9567 24.4851C17.9572 23.9003 17.8346 23.322 17.5969 22.7877L16.2265 23.3976ZM16.4567 24.4843V31.5043H17.9567V24.4843H16.4567ZM16.4567 31.5096C16.4587 31.7953 16.4147 32.0795 16.3266 32.3513L17.7534 32.8141C17.8911 32.3895 17.9597 31.9455 17.9566 31.4991L16.4567 31.5096ZM17.5831 23.4269C17.8144 22.9622 18.1463 22.5548 18.5546 22.2344L17.6287 21.0543C17.0451 21.5122 16.5708 22.0944 16.2402 22.7585L17.5831 23.4269ZM18.5345 22.2497C18.9688 21.932 19.287 21.4807 19.4405 20.9649L18.0028 20.5371C17.9429 20.7386 17.8185 20.9149 17.6489 21.039L18.5345 22.2497ZM19.448 20.938L21.2497 13.938L19.797 13.5641L17.9953 20.5641L19.448 20.938ZM21.2435 13.9606C21.5695 12.8401 22.7327 12.1869 23.8591 12.4917L24.2509 11.0437C22.3354 10.5255 20.3577 11.6362 19.8032 13.5415L21.2435 13.9606ZM23.8764 12.4961C24.4104 12.6271 24.8694 12.9673 25.15 13.4402L26.44 12.6747C25.9539 11.8555 25.1588 11.2662 24.2336 11.0393L23.8764 12.4961ZM25.15 13.4402C25.4306 13.9131 25.5093 14.4789 25.3684 15.0105L26.8183 15.3949C27.0624 14.4742 26.9261 13.4939 26.44 12.6747L25.15 13.4402ZM25.3703 15.0035L24.3403 18.7418L25.7864 19.1402L26.8164 15.4019L25.3703 15.0035ZM24.3372 18.7532C24.1681 19.4071 24.3143 20.1026 24.7325 20.633L25.9104 19.7043C25.7824 19.5419 25.7376 19.329 25.7894 19.1289L24.3372 18.7532ZM24.7325 20.633C25.1508 21.1634 25.7929 21.4679 26.4683 21.4559L26.4417 19.9561C26.235 19.9598 26.0384 19.8666 25.9104 19.7043L24.7325 20.633ZM26.455 21.456H32.3417V19.956H26.455V21.456ZM32.352 21.4559C33.2849 21.4431 34.1847 21.8015 34.8533 22.4523L35.8996 21.3775C34.9458 20.4491 33.6622 19.9378 32.3313 19.9561L32.352 21.4559ZM34.8533 22.4523C35.5219 23.1031 35.9044 23.993 35.9167 24.9259L37.4166 24.9061C37.399 23.5752 36.8533 22.3059 35.8996 21.3775L34.8533 22.4523ZM35.9167 24.916V30.5277H37.4167V24.916H35.9167ZM35.9167 30.5175C35.9041 31.4502 35.5214 32.3397 34.8528 32.9902L35.8989 34.0652C36.8526 33.1373 37.3985 31.8684 37.4166 30.5379L35.9167 30.5175ZM34.8528 32.9902C34.1843 33.6407 33.2847 33.9989 32.352 33.9861L32.3313 35.4859C33.6619 35.5043 34.9452 34.9932 35.8989 34.0652L34.8528 32.9902ZM32.3417 33.986H20.81V35.486H32.3417V33.986ZM20.8062 33.986C19.5199 33.9925 18.3283 33.311 17.6817 32.199L16.385 32.953C17.3015 34.5292 18.9906 35.4952 20.8138 35.486L20.8062 33.986Z" fill="#003D7C"/>
</g>
</g>
<rect x="1" y="1" width="48" height="48" rx="24" stroke="#FFE500" stroke-width="2"/>
</g>
</svg>
