<svg width="50" height="50" viewBox="0 0 50 50" fill="none" xmlns="http://www.w3.org/2000/svg">
<g id="Group 8">
<g id="Frame 8">
<g id="Xnix/Line/Chef_Cap">
<g id="Vector">
<path id="Vector-13" d="M14.8943 32.4576C14.986 32.8616 15.3878 33.1147 15.7917 33.0231C16.1957 32.9314 16.4488 32.5296 16.3572 32.1257L14.8943 32.4576ZM12.5008 18.5187L11.7509 18.532C11.7518 18.5834 11.758 18.6345 11.7693 18.6847L12.5008 18.5187ZM17.1883 13.6583L17.1896 12.9083C17.1845 12.9083 17.1794 12.9084 17.1743 12.9085L17.1883 13.6583ZM20.3258 14.9083L19.811 15.4538C20.0232 15.654 20.3322 15.713 20.6032 15.6051C20.8743 15.4972 21.0581 15.2418 21.0746 14.9506L20.3258 14.9083ZM25.0008 10.4167L25.013 9.66676C25.0048 9.66662 24.9967 9.66662 24.9885 9.66676L25.0008 10.4167ZM29.6758 14.9083L28.9269 14.9506C28.9434 15.2418 29.1272 15.4972 29.3983 15.6051C29.6693 15.713 29.9783 15.654 30.1905 15.4538L29.6758 14.9083ZM32.8133 13.6583L32.8272 12.9085C32.8221 12.9084 32.817 12.9083 32.8119 12.9083L32.8133 13.6583ZM37.5008 18.5187L38.2322 18.6847C38.2435 18.6345 38.2497 18.5834 38.2506 18.532L37.5008 18.5187ZM33.6443 32.1257C33.5527 32.5296 33.8059 32.9314 34.2098 33.0231C34.6138 33.1147 35.0155 32.8616 35.1072 32.4576L33.6443 32.1257ZM15.6258 31.5417C15.2115 31.5417 14.8758 31.8774 14.8758 32.2917C14.8758 32.7059 15.2115 33.0417 15.6258 33.0417V31.5417ZM20.3133 33.0417C20.7275 33.0417 21.0633 32.7059 21.0633 32.2917C21.0633 31.8774 20.7275 31.5417 20.3133 31.5417V33.0417ZM16.3758 32.2917C16.3758 31.8774 16.04 31.5417 15.6258 31.5417C15.2115 31.5417 14.8758 31.8774 14.8758 32.2917H16.3758ZM15.6258 34.7229L16.3747 34.7627C16.3754 34.7495 16.3758 34.7362 16.3758 34.7229H15.6258ZM19.7924 39.5833L19.7173 40.3296C19.7423 40.3321 19.7673 40.3333 19.7924 40.3333V39.5833ZM30.2091 39.5833V40.3333C30.2342 40.3333 30.2592 40.3321 30.2842 40.3296L30.2091 39.5833ZM34.3758 34.7229H33.6258C33.6258 34.7362 33.6261 34.7495 33.6268 34.7627L34.3758 34.7229ZM35.1258 32.2917C35.1258 31.8774 34.79 31.5417 34.3758 31.5417C33.9615 31.5417 33.6258 31.8774 33.6258 32.2917H35.1258ZM24.2508 32.2917C24.2508 32.7059 24.5865 33.0417 25.0008 33.0417C25.415 33.0417 25.7508 32.7059 25.7508 32.2917H24.2508ZM25.7508 25C25.7508 24.5858 25.415 24.25 25.0008 24.25C24.5865 24.25 24.2508 24.5858 24.2508 25H25.7508ZM25.0008 33.0417C25.415 33.0417 25.7508 32.7059 25.7508 32.2917C25.7508 31.8774 25.415 31.5417 25.0008 31.5417V33.0417ZM20.3133 31.5417C19.899 31.5417 19.5633 31.8774 19.5633 32.2917C19.5633 32.7059 19.899 33.0417 20.3133 33.0417V31.5417ZM25.0008 31.5417C24.5865 31.5417 24.2508 31.8774 24.2508 32.2917C24.2508 32.7059 24.5865 33.0417 25.0008 33.0417V31.5417ZM29.6883 33.0417C30.1025 33.0417 30.4383 32.7059 30.4383 32.2917C30.4383 31.8774 30.1025 31.5417 29.6883 31.5417V33.0417ZM19.5799 32.4488C19.6667 32.8538 20.0654 33.1118 20.4704 33.025C20.8754 32.9382 21.1334 32.5395 21.0466 32.1345L19.5799 32.4488ZM19.4841 24.8428C19.3973 24.4378 18.9986 24.1798 18.5936 24.2666C18.1886 24.3534 17.9306 24.7521 18.0174 25.1571L19.4841 24.8428ZM34.3758 33.0417C34.79 33.0417 35.1258 32.7059 35.1258 32.2917C35.1258 31.8774 34.79 31.5417 34.3758 31.5417V33.0417ZM29.6883 31.5417C29.274 31.5417 28.9383 31.8774 28.9383 32.2917C28.9383 32.7059 29.274 33.0417 29.6883 33.0417V31.5417ZM28.9549 32.1345C28.8681 32.5395 29.1261 32.9382 29.5311 33.025C29.9361 33.1118 30.3348 32.8538 30.4216 32.4488L28.9549 32.1345ZM31.9841 25.1571C32.0709 24.7521 31.8129 24.3534 31.4079 24.2666C31.0029 24.1798 30.6042 24.4378 30.5174 24.8428L31.9841 25.1571ZM16.3572 32.1257L13.2322 18.3528L11.7693 18.6847L14.8943 32.4576L16.3572 32.1257ZM13.2506 18.5055C13.2115 16.2833 14.98 14.4495 17.2022 14.4082L17.1743 12.9085C14.1244 12.9652 11.6971 15.482 11.7509 18.532L13.2506 18.5055ZM17.1869 14.4083C18.1628 14.4101 19.1013 14.784 19.811 15.4538L20.8405 14.3629C19.8531 13.431 18.5474 12.9108 17.1896 12.9083L17.1869 14.4083ZM21.0746 14.9506C21.1929 12.852 22.9114 11.2009 25.013 11.1666L24.9885 9.66676C22.1009 9.71399 19.7396 11.9827 19.5769 14.8661L21.0746 14.9506ZM24.9885 11.1666C27.0901 11.2009 28.8086 12.852 28.9269 14.9506L30.4246 14.8661C30.2619 11.9827 27.9006 9.71399 25.013 9.66676L24.9885 11.1666ZM30.1905 15.4538C30.9003 14.784 31.8387 14.4101 32.8146 14.4083L32.8119 12.9083C31.4542 12.9108 30.1484 13.431 29.161 14.3629L30.1905 15.4538ZM32.7993 14.4082C35.0215 14.4495 36.79 16.2833 36.7509 18.5055L38.2506 18.532C38.3044 15.482 35.8771 12.9652 32.8272 12.9085L32.7993 14.4082ZM36.7693 18.3528L33.6443 32.1257L35.1072 32.4576L38.2322 18.6847L36.7693 18.3528ZM15.6258 33.0417H20.3133V31.5417H15.6258V33.0417ZM14.8758 32.2917V34.7229H16.3758V32.2917H14.8758ZM14.8768 34.6831C14.7241 37.5557 16.8551 40.0416 19.7173 40.3296L19.8675 38.8371C17.8022 38.6293 16.2645 36.8355 16.3747 34.7627L14.8768 34.6831ZM19.7924 40.3333H30.2091V38.8333H19.7924V40.3333ZM30.2842 40.3296C33.1464 40.0416 35.2774 37.5557 35.1247 34.6831L33.6268 34.7627C33.737 36.8355 32.1993 38.6293 30.134 38.8371L30.2842 40.3296ZM35.1258 34.7229V32.2917H33.6258V34.7229H35.1258ZM25.7508 32.2917V25H24.2508V32.2917H25.7508ZM25.0008 31.5417H20.3133V33.0417H25.0008V31.5417ZM25.0008 33.0417H29.6883V31.5417H25.0008V33.0417ZM21.0466 32.1345L19.4841 24.8428L18.0174 25.1571L19.5799 32.4488L21.0466 32.1345ZM34.3758 31.5417H29.6883V33.0417H34.3758V31.5417ZM30.4216 32.4488L31.9841 25.1571L30.5174 24.8428L28.9549 32.1345L30.4216 32.4488Z" fill="#003D7C"/>
</g>
</g>
<rect x="1" y="1" width="48" height="48" rx="24" stroke="#FFE500" stroke-width="2"/>
</g>
</g>
</svg>
